<svg viewBox="0 0 64 64" fill="none" xmlns="http://www.w3.org/2000/svg">
<path d="M54.6287 9.37133C48.5882 3.33086 40.5518 0 32 0C23.4482 0 15.4118 3.33086 9.37133 9.37133C3.33086 15.4118 0 23.4482 0 32C0 40.5518 3.33086 48.5882 9.37133 54.6287C15.4118 60.6691 23.4482 64 32 64C40.5518 64 48.5882 60.6691 54.6287 54.6287C60.6691 48.5882 64 40.5518 64 32C64 23.4482 60.6691 15.4118 54.6287 9.37133ZM32 21.5184C29.9777 21.5184 28.3387 23.1574 28.3387 25.1797C28.3387 26.1049 27.5853 26.8583 26.6601 26.8583C25.7348 26.8583 24.9814 26.1049 24.9814 25.1797C24.9814 21.3069 28.1272 18.1611 32 18.1611C32.9252 18.1611 33.6786 18.9145 33.6786 19.8397C33.6786 20.765 32.9252 21.5184 32 21.5184ZM49.7249 49.5266C47.8612 42.7988 44.3321 36.9302 37.9347 34.7228C41.1202 32.7402 43.235 29.2111 43.235 25.1797C43.235 18.9674 38.1991 13.9447 32 13.9447C25.8009 13.9447 20.765 18.9806 20.765 25.1797C20.765 29.2111 22.8798 32.7402 26.0653 34.7228C19.6679 36.9302 16.1388 42.7988 14.2751 49.5266C9.82074 45.0194 7.05824 38.8203 7.05824 32C7.05824 18.2404 18.2536 7.05824 32 7.05824C45.7596 7.05824 56.9418 18.2536 56.9418 32C56.9418 38.8335 54.1925 45.0194 49.7249 49.5266Z" fill="#2A2A2A"/>
</svg>
